<?xml version="1.0" standalone="no"?>
<!DOCTYPE svg PUBLIC "-//W3C//DTD SVG 20010904//EN"
 "http://www.w3.org/TR/2001/REC-SVG-20010904/DTD/svg10.dtd">
<svg version="1.0" xmlns="http://www.w3.org/2000/svg"
 width="896.000000pt" height="896.000000pt" viewBox="0 0 896.000000 896.000000"
 preserveAspectRatio="xMidYMid meet">
<metadata>
Created by potrace 1.14, written by Peter Selinger 2001-2017
</metadata>
<g transform="translate(0.000000,896.000000) scale(0.100000,-0.100000)"
fill="#000000" stroke="none">
<path d="M4740 6550 c0 -1188 2 -2160 5 -2160 3 0 39 20 79 45 41 25 79 45 84
45 6 0 12 4 14 8 2 5 30 23 63 42 33 18 63 38 66 43 3 5 8 8 10 6 2 -1 23 10
47 25 24 15 59 36 78 47 63 35 98 56 214 125 l115 69 0 1495 0 1495 25 -1 c27
-1 321 -93 330 -103 3 -3 12 -7 20 -9 59 -11 395 -169 535 -252 95 -56 98 -58
188 -117 43 -29 83 -53 88 -53 5 0 9 -4 9 -9 0 -5 17 -20 38 -32 20 -13 39
-26 42 -29 3 -3 25 -21 50 -40 25 -19 50 -39 56 -45 6 -5 32 -28 58 -49 26
-21 60 -51 75 -65 98 -91 124 -117 196 -192 119 -125 257 -290 292 -350 10
-16 21 -29 25 -29 4 0 8 -6 8 -14 0 -8 3 -16 8 -18 8 -3 92 -123 92 -132 0 -3
13 -24 29 -48 49 -74 221 -403 221 -423 0 -3 11 -31 25 -61 14 -30 25 -60 25
-68 0 -7 3 -16 7 -19 3 -4 14 -29 24 -57 13 -37 14 -51 6 -59 -11 -8 -436
-249 -617 -349 -97 -54 -233 -131 -250 -142 -8 -6 -22 -13 -30 -17 -8 -4 -60
-32 -115 -63 -55 -31 -120 -68 -145 -82 -25 -14 -61 -34 -81 -46 -20 -11 -47
-26 -60 -34 -13 -7 -27 -17 -31 -23 -4 -5 -8 -7 -8 -3 0 6 -121 -60 -170 -92
-8 -6 -28 -17 -45 -26 -16 -8 -48 -25 -70 -37 -61 -35 -126 -72 -170 -97 -22
-12 -74 -42 -116 -66 -42 -24 -81 -44 -87 -44 -7 0 -12 -4 -12 -10 0 -5 -4
-10 -10 -10 -5 0 -31 -13 -58 -29 -77 -45 -213 -121 -267 -149 -16 -8 -32 -18
-35 -21 -3 -3 -21 -14 -40 -25 -74 -39 -137 -75 -188 -105 -29 -17 -57 -31
-62 -31 -6 0 -10 -5 -10 -12 0 -6 -3 -9 -6 -5 -4 3 -23 -5 -43 -18 -19 -14
-41 -25 -48 -25 -7 0 -13 -4 -13 -10 0 -5 -4 -10 -8 -10 -5 0 -55 -27 -113
-59 -57 -33 -124 -70 -149 -83 -25 -13 -46 -26 -48 -30 -2 -5 -8 -8 -12 -8 -5
0 -36 -16 -69 -35 l-61 -36 0 -1740 0 -1741 108 6 c59 4 125 8 147 10 94 9
162 17 185 21 14 2 45 7 70 10 25 3 56 7 70 10 14 3 39 7 55 10 17 2 41 7 55
10 29 7 114 24 150 31 14 3 77 19 140 35 63 17 123 32 132 34 9 2 27 9 40 16
13 7 23 11 23 10 0 -6 150 41 161 50 6 5 14 6 17 2 4 -3 12 -1 19 4 7 6 31 16
53 23 22 7 45 16 50 20 6 4 28 13 50 20 22 7 56 21 75 31 19 11 38 19 42 19 3
0 60 25 125 57 65 31 120 57 123 57 3 1 16 9 30 17 14 9 54 32 90 51 104 56
142 78 188 109 24 16 45 29 47 29 6 0 226 150 235 160 3 3 21 17 40 30 19 14
44 32 55 41 229 188 245 203 408 365 100 99 154 157 229 245 108 129 134 161
209 268 46 64 87 119 92 122 5 3 8 9 8 13 -1 5 31 58 94 156 46 73 109 190
175 325 111 230 138 296 227 565 35 107 67 202 70 210 7 19 11 29 16 55 3 11
11 40 17 65 7 25 14 54 16 65 1 11 3 20 4 20 1 0 3 8 5 18 2 10 10 52 19 95
13 69 20 108 31 192 20 137 27 508 13 655 -4 39 -7 78 -7 88 -1 9 -5 17 -10
17 -8 0 -176 -99 -259 -152 -15 -10 -38 -23 -52 -28 -13 -6 -27 -15 -30 -19
-3 -5 -23 -18 -45 -30 -22 -12 -53 -30 -70 -41 -16 -11 -37 -23 -45 -27 -8 -4
-46 -26 -85 -50 l-70 -44 -1 -57 c-2 -95 -14 -269 -18 -283 -3 -8 -7 -34 -10
-59 -3 -25 -8 -56 -11 -70 -3 -14 -7 -38 -9 -55 -5 -36 -61 -252 -82 -315 -28
-84 -157 -405 -181 -449 -13 -24 -23 -49 -23 -55 0 -6 -9 -22 -20 -36 -11 -14
-20 -33 -20 -42 0 -10 -4 -18 -10 -18 -5 0 -10 -4 -10 -9 0 -6 -25 -52 -55
-103 -75 -125 -77 -129 -97 -152 -10 -11 -18 -23 -18 -26 0 -4 -18 -31 -40
-61 -23 -30 -51 -67 -63 -84 -12 -16 -32 -40 -44 -52 -12 -13 -26 -29 -30 -37
-12 -21 -168 -190 -233 -252 -128 -123 -160 -151 -270 -238 -124 -99 -275
-208 -286 -206 -4 1 -10 -2 -13 -8 -9 -13 -136 -92 -149 -92 -6 0 -12 -4 -14
-8 -1 -5 -43 -30 -93 -57 -49 -26 -96 -52 -102 -58 -7 -5 -13 -6 -13 -1 0 5
-4 5 -8 -1 -8 -12 -86 -50 -192 -95 -41 -18 -93 -40 -115 -50 -67 -29 -170
-65 -177 -62 -5 1 -8 -3 -8 -10 0 -6 -3 -9 -6 -5 -4 3 -23 0 -43 -8 -20 -7
-45 -16 -56 -21 -11 -4 -26 -8 -34 -10 -8 -1 -37 -10 -65 -19 -57 -19 -91 -27
-121 -29 -20 -1 -20 5 -20 1086 l-1 1086 108 61 c60 34 112 61 117 61 5 0 11
3 13 8 3 7 20 16 128 73 25 13 47 26 50 29 3 3 14 10 25 16 11 6 43 23 70 39
28 15 75 41 105 58 30 16 69 38 85 47 51 30 129 73 160 88 17 9 32 18 35 21 3
3 23 16 45 28 22 12 60 33 85 47 25 14 56 31 70 38 14 7 58 32 98 55 40 24 74
43 77 43 2 0 28 14 57 31 29 17 76 44 103 59 28 15 139 77 249 138 109 62 203
112 207 112 5 0 9 5 9 10 0 6 4 10 9 10 5 0 93 48 197 106 104 58 218 122 254
141 36 20 70 39 75 43 6 4 37 22 70 40 33 18 110 62 172 97 62 34 117 63 123
63 5 0 10 5 10 10 0 6 5 10 10 10 6 0 58 27 116 60 58 33 110 60 115 60 5 0 9
4 9 8 0 4 12 13 28 20 28 12 106 55 225 124 71 41 75 49 53 108 -3 8 -7 29 -9
45 -11 71 -20 111 -30 123 -5 7 -7 15 -5 18 3 3 -5 44 -19 92 -13 48 -26 92
-27 97 -1 6 -9 30 -16 55 -7 25 -15 50 -16 55 -6 24 -59 169 -101 275 -67 170
-197 434 -282 571 -18 29 -75 122 -94 154 -7 11 -24 36 -39 56 -16 20 -28 40
-28 43 0 3 -7 14 -15 23 -8 10 -42 56 -76 103 -34 47 -67 90 -73 95 -6 6 -23
26 -37 45 -75 100 -288 325 -425 450 -27 25 -78 70 -114 100 -36 30 -67 57
-70 60 -3 3 -45 36 -95 74 -49 38 -96 76 -102 84 -7 9 -13 12 -13 8 0 -4 -21
8 -47 27 -150 109 -394 253 -587 346 -108 53 -192 91 -206 96 -3 1 -22 9 -44
18 -47 21 -277 105 -294 108 -4 0 -14 5 -23 10 -9 4 -27 10 -40 13 -13 3 -62
17 -109 31 -47 14 -94 27 -105 30 -29 6 -93 21 -220 51 -50 12 -59 14 -85 18
-148 25 -213 36 -260 41 -30 4 -73 9 -95 12 -22 2 -60 6 -85 8 -25 1 -45 3
-45 4 0 1 -46 4 -102 7 l-103 5 0 -2161z"/>
<path d="M4037 8693 c-2 -1 -32 -4 -69 -7 -36 -3 -81 -8 -99 -11 -19 -3 -54
-7 -79 -9 -44 -5 -101 -13 -150 -22 -14 -2 -40 -7 -59 -10 -18 -3 -43 -8 -55
-10 -11 -3 -31 -7 -43 -10 -41 -8 -67 -13 -133 -29 -93 -22 -102 -24 -135 -31
-16 -3 -34 -10 -40 -14 -5 -5 -13 -8 -18 -9 -28 -1 -84 -15 -94 -24 -7 -5 -13
-6 -13 -2 0 4 -7 2 -15 -5 -8 -7 -15 -10 -15 -7 0 3 -51 -12 -112 -34 -62 -23
-133 -48 -158 -56 -25 -9 -49 -20 -55 -24 -5 -5 -15 -9 -22 -9 -22 0 -460
-209 -493 -235 -8 -7 -35 -23 -60 -36 -25 -13 -66 -39 -92 -57 -27 -17 -48
-29 -48 -25 0 5 -4 4 -8 -2 -4 -5 -41 -32 -82 -60 -41 -27 -77 -52 -80 -55 -3
-3 -13 -9 -22 -15 -29 -17 -212 -157 -228 -174 -8 -9 -33 -30 -54 -46 -53 -40
-127 -109 -255 -236 -181 -180 -291 -307 -413 -473 -21 -28 -41 -56 -46 -61
-36 -44 -230 -349 -253 -400 -6 -11 -15 -29 -22 -40 -14 -22 -80 -147 -82
-155 -1 -3 -18 -40 -38 -83 -21 -43 -37 -82 -37 -88 0 -5 -4 -9 -10 -9 -5 0
-9 -3 -8 -7 1 -5 -4 -24 -11 -43 -8 -19 -15 -37 -16 -40 0 -3 -9 -22 -18 -44
-9 -21 -17 -42 -17 -46 0 -4 -7 -24 -15 -44 -8 -20 -14 -37 -13 -38 1 -2 -4
-14 -11 -27 -24 -43 -122 -391 -115 -403 3 -5 1 -8 -4 -8 -5 0 -9 -6 -9 -12 0
-7 -5 -38 -12 -68 -24 -107 -33 -171 -23 -168 6 2 119 -59 172 -93 8 -5 26
-15 40 -21 14 -7 27 -15 30 -18 5 -5 121 -68 157 -85 13 -5 23 -13 23 -17 0
-5 5 -8 11 -8 6 0 24 -9 40 -21 16 -11 29 -17 29 -13 0 4 8 0 18 -8 9 -8 69
-44 132 -78 146 -81 637 -356 670 -376 14 -8 33 -18 43 -21 9 -3 17 -9 17 -14
0 -5 6 -9 13 -9 6 0 28 -10 47 -22 19 -12 37 -22 40 -23 3 0 16 -8 30 -17 44
-28 212 -118 221 -118 5 0 9 -4 9 -10 0 -5 4 -10 10 -10 5 0 48 -22 96 -50 48
-27 90 -50 94 -50 4 0 13 -7 20 -15 7 -9 15 -13 18 -11 3 3 17 -3 31 -13 14
-10 51 -31 81 -48 30 -17 73 -40 95 -53 176 -100 269 -152 320 -180 33 -18
152 -85 265 -148 113 -63 225 -126 250 -140 25 -13 59 -32 75 -42 17 -10 53
-30 80 -45 28 -15 78 -43 112 -62 35 -19 66 -40 70 -46 9 -14 11 -2155 2
-2169 -4 -6 -28 -3 -65 7 -103 29 -218 65 -239 74 -11 5 -38 15 -60 21 -22 6
-53 18 -70 25 -16 7 -82 35 -145 61 -119 49 -286 128 -308 146 -6 6 -12 7 -12
4 0 -4 -13 2 -29 13 -16 12 -34 21 -40 21 -6 0 -11 5 -11 10 0 6 -6 10 -12 10
-7 1 -38 16 -68 35 -30 19 -70 42 -87 51 -18 9 -33 20 -33 25 0 5 -5 9 -11 9
-19 0 -285 192 -394 285 -84 71 -308 285 -299 285 2 0 -11 15 -29 33 -32 31
-111 122 -125 142 -22 31 -88 110 -94 113 -5 2 -8 8 -8 14 0 10 -49 79 -65 90
-5 4 -6 8 -2 8 5 0 1 7 -8 16 -9 9 -31 41 -48 71 -18 30 -42 71 -54 91 -13 21
-30 53 -40 72 -9 19 -24 46 -33 60 -9 14 -23 41 -30 60 -7 19 -19 42 -26 50
-7 8 -13 20 -14 25 -2 6 -6 19 -10 30 -15 37 -72 180 -83 205 -6 14 -11 27
-12 30 -1 3 -5 12 -8 20 -12 26 -77 220 -81 243 -3 12 -12 47 -20 77 -8 30
-17 66 -20 80 -19 88 -27 130 -31 165 -3 22 -7 51 -10 65 -7 35 -17 180 -19
272 -1 42 -4 79 -6 81 -5 5 -363 221 -410 248 -14 8 -27 17 -30 20 -3 4 -15 9
-27 13 -13 4 -23 12 -23 17 0 6 -5 7 -10 4 -6 -3 -10 -2 -10 3 0 5 -14 15 -30
22 -17 7 -30 17 -30 22 0 5 -4 6 -10 3 -5 -3 -10 -3 -10 2 0 10 -59 37 -66 30
-16 -16 -25 -507 -12 -632 4 -33 9 -83 12 -112 10 -96 49 -301 76 -403 12 -41
22 -82 24 -90 2 -8 19 -60 37 -115 18 -55 34 -102 34 -105 1 -3 4 -12 8 -20 3
-8 11 -33 17 -55 6 -22 15 -49 20 -60 16 -36 70 -180 70 -187 0 -7 48 -113
106 -235 19 -40 34 -74 33 -75 -1 -2 10 -22 24 -45 15 -24 27 -45 27 -48 0 -2
20 -39 45 -81 25 -41 45 -78 45 -81 0 -7 208 -319 223 -335 7 -7 32 -40 56
-73 25 -33 48 -61 53 -63 4 -2 8 -10 8 -17 0 -7 3 -15 8 -17 4 -2 23 -21 42
-44 190 -221 347 -378 540 -540 86 -71 130 -105 307 -236 29 -21 56 -38 62
-38 5 0 11 -4 13 -8 3 -9 243 -158 293 -182 17 -8 32 -17 35 -20 6 -7 299
-151 350 -173 61 -26 99 -39 106 -37 4 1 10 -2 13 -7 6 -9 152 -65 168 -65 4
0 19 -6 33 -13 39 -20 339 -108 445 -130 11 -3 40 -9 65 -15 51 -11 63 -13
214 -40 158 -28 297 -44 492 -55 l101 -6 0 1740 0 1741 -49 30 c-26 17 -50 30
-53 30 -2 0 -31 16 -63 35 -108 63 -187 106 -204 112 -10 3 -18 9 -18 14 0 5
-4 9 -8 9 -8 0 -166 87 -277 152 -27 16 -62 34 -77 41 -16 6 -28 15 -28 19 0
4 -5 8 -11 8 -7 0 -34 13 -60 30 -27 16 -49 26 -49 22 0 -4 -4 -2 -8 3 -6 9
-86 56 -314 184 -21 12 -55 31 -75 42 -21 12 -58 33 -83 47 -25 14 -74 42
-110 62 -36 20 -86 49 -112 64 -27 14 -69 38 -95 52 -27 15 -77 44 -113 64
-36 20 -87 50 -115 65 -56 31 -87 48 -226 127 -52 30 -102 58 -110 61 -8 4
-41 23 -74 43 -33 19 -68 38 -77 41 -10 3 -18 9 -18 14 0 5 -5 9 -10 9 -6 0
-79 39 -163 87 -83 47 -172 97 -197 111 -25 14 -61 34 -80 45 -19 11 -53 31
-75 43 -22 13 -58 33 -80 44 -43 22 -77 42 -85 50 -3 3 -18 12 -35 20 -16 8
-47 25 -67 37 -40 24 -40 24 -11 93 3 8 7 20 8 25 5 19 66 168 78 189 6 12 12
23 12 26 1 3 11 25 22 50 12 25 22 50 23 55 1 6 7 17 14 25 6 8 18 29 26 45 8
17 34 63 57 103 24 41 43 76 43 78 0 2 16 27 35 54 19 27 35 53 35 57 0 5 9
19 20 33 11 14 55 72 97 130 74 101 108 142 146 182 9 10 17 20 17 22 0 5 95
108 168 183 83 84 292 267 362 318 30 22 57 42 60 45 7 9 201 140 207 140 2 0
23 13 46 28 104 71 366 202 537 270 153 61 367 131 411 134 l33 3 0 -1495 1
-1494 120 -73 c66 -39 131 -78 145 -85 14 -7 31 -19 38 -25 7 -7 20 -13 28
-13 8 0 14 -4 14 -10 0 -5 4 -10 9 -10 5 0 73 -38 150 -85 78 -47 144 -85 146
-85 2 0 23 -13 47 -28 24 -16 50 -31 59 -35 14 -5 16 185 16 2154 l0 2158 -89
-2 c-49 -1 -90 -3 -91 -4z"/>
</g>
</svg>
