<?xml version="1.0" standalone="no"?>
<!DOCTYPE svg PUBLIC "-//W3C//DTD SVG 20010904//EN"
 "http://www.w3.org/TR/2001/REC-SVG-20010904/DTD/svg10.dtd">
<svg version="1.0" xmlns="http://www.w3.org/2000/svg"
 width="700.000000pt" height="700.000000pt" viewBox="0 0 700.000000 700.000000"
 preserveAspectRatio="xMidYMid meet">
<metadata>
Created by potrace 1.14, written by Peter Selinger 2001-2017
</metadata>
<g transform="translate(0.000000,700.000000) scale(0.100000,-0.100000)"
fill="#000000" stroke="none">
<path d="M3187 6994 c-1 -1 -36 -5 -77 -9 -129 -11 -146 -13 -267 -35 -287
-51 -590 -146 -840 -265 -63 -30 -117 -55 -118 -55 -11 0 -237 -134 -325 -193
-144 -96 -206 -143 -355 -271 -64 -55 -232 -220 -305 -301 -263 -291 -501
-681 -651 -1065 -60 -156 -150 -460 -165 -560 -3 -19 -9 -51 -15 -70 -20 -75
-16 -80 84 -139 51 -29 214 -126 362 -214 149 -88 389 -231 535 -317 146 -86
361 -214 478 -283 118 -70 218 -127 223 -127 5 0 9 -4 9 -10 0 -5 4 -10 9 -10
7 0 517 -299 816 -479 33 -20 71 -42 85 -49 l25 -13 0 -902 c0 -894 -1 -902
-20 -899 -45 8 -258 83 -375 132 -231 96 -447 219 -655 374 -141 106 -184 143
-330 291 -262 264 -450 555 -588 910 -95 243 -132 375 -171 607 -8 47 -19 212
-19 270 l1 58 -232 147 c-127 80 -238 152 -247 160 -24 20 -47 16 -48 -9 -6
-131 -6 -489 0 -526 4 -26 10 -76 14 -112 4 -36 9 -74 11 -85 46 -241 125
-513 221 -760 46 -118 167 -367 233 -480 51 -86 198 -308 232 -350 9 -11 47
-58 85 -105 86 -108 352 -376 463 -467 265 -216 563 -398 830 -508 36 -14 79
-32 95 -40 55 -24 269 -93 370 -119 194 -49 287 -68 400 -82 33 -4 69 -8 80
-10 11 -1 67 -5 125 -9 58 -4 111 -8 118 -10 9 -4 12 289 12 1438 l0 1443
-151 89 c-84 50 -163 97 -178 105 -14 9 -82 49 -151 90 -69 41 -129 77 -135
80 -11 6 -617 367 -870 519 -88 53 -169 101 -180 107 -19 10 -284 168 -673
400 -95 57 -177 104 -181 104 -25 0 -27 25 -6 88 23 69 78 208 94 239 5 10 33
65 62 123 296 592 816 1081 1421 1334 128 53 328 119 337 111 3 -4 6 -561 6
-1238 l0 -1232 299 -187 c164 -104 300 -188 302 -188 2 0 4 802 4 1783 l0
1784 -56 -1 c-30 0 -56 -1 -57 -2z"/>
<path d="M3689 6993 c-5 -45 -2 -3563 3 -3563 4 0 113 66 243 148 129 81 258
161 286 178 29 17 57 38 63 46 8 11 11 370 11 1246 -1 678 3 1232 7 1232 17 0
208 -65 303 -102 215 -86 459 -226 667 -385 126 -96 368 -335 470 -463 145
-184 236 -326 335 -522 64 -129 153 -344 153 -372 0 -8 5 -18 10 -21 12 -7 -5
-35 -20 -35 -4 0 -39 -19 -76 -42 -38 -23 -127 -76 -199 -118 -71 -42 -215
-128 -320 -190 -104 -62 -300 -178 -435 -258 -272 -161 -768 -455 -958 -569
-68 -40 -125 -73 -127 -73 -2 0 -23 -12 -47 -27 -24 -16 -52 -33 -63 -40 -11
-6 -83 -49 -160 -94 -77 -45 -142 -84 -144 -86 -6 -4 -8 -2841 -2 -2866 4 -17
11 -18 95 -12 50 5 105 9 121 10 39 3 144 16 170 21 11 3 38 7 59 9 156 21
467 109 680 192 270 105 641 320 850 491 314 258 529 492 735 802 75 112 93
142 162 265 136 245 266 585 358 935 18 67 26 106 36 175 2 11 8 47 14 80 20
112 26 210 26 400 -1 149 -7 282 -14 312 -1 1 -34 -19 -73 -46 -94 -61 -223
-143 -246 -156 -9 -5 -59 -36 -110 -69 l-92 -59 -1 -86 c-1 -107 -6 -162 -24
-276 -32 -199 -71 -335 -165 -575 -167 -425 -413 -771 -765 -1077 -219 -190
-543 -389 -804 -494 -42 -17 -89 -37 -106 -44 -40 -17 -232 -81 -271 -89 l-30
-7 0 900 c1 495 4 902 7 906 12 11 361 215 369 215 5 0 10 4 12 8 2 5 15 15
31 23 25 13 143 83 642 378 105 62 206 122 225 133 32 19 437 257 613 362 59
34 370 218 560 330 l189 111 -6 40 c-12 84 -18 113 -41 205 -37 149 -51 198
-83 295 -158 477 -434 943 -766 1294 -413 436 -879 734 -1431 915 -136 44
-245 73 -430 112 -139 29 -494 62 -496 47z"/>
</g>
</svg>
