<svg width="28.365" height="26.813" xmlns="http://www.w3.org/2000/svg"><path d="M13.393 26.912V15.889l-10.31-5.81c1.19-3.516 4.16-6.255 7.862-7.211v9.496l2.448 1.454V.128c-.825.03-1.653.12-2.448.298C5.465 1.56 1.212 5.846.265 11.272l10.68 5.987v6.91c-3.618-.93-6.795-3.378-8.04-6.754-.03-.08-.742-1.597-.688-3.387L.12 12.762c-.324 2.495.488 4.463.522 4.58C2.056 22 6.02 25.597 10.945 26.615c.795.177 1.623.267 2.448.297z" style="fill:#00007e;stroke-width:.989624" transform="translate(-.043 -.098)"/><path d="M15.05 26.882V15.86l10.317-5.809c-1.19-3.517-4.164-6.256-7.868-7.212v9.496l-2.45 1.454V.098c.826.03 1.655.12 2.45.298 5.484 1.134 9.74 5.42 10.687 10.846L17.499 17.23v6.91c3.62-.93 6.8-3.378 8.045-6.754.03-.079.743-1.597.689-3.387l2.099-1.266c.324 2.495-.488 4.463-.522 4.58-1.416 4.658-5.382 8.255-10.31 9.273-.796.177-1.625.267-2.45.297z" style="fill:#00007e;stroke-width:.989936" transform="translate(-.043 -.098)"/></svg>