<svg width="26.868" height="26.814" xmlns="http://www.w3.org/2000/svg"><path d="M12.645 26.814V15.791l-9.766-5.81c1.127-3.516 3.94-6.255 7.447-7.211v9.496l2.319 1.454V.03c-.782.03-1.566.12-2.319.298C5.136 1.462 1.106 5.748.21 11.174l10.116 5.987v6.91c-3.427-.93-6.436-3.378-7.616-6.754-.028-.08-.703-1.597-.651-3.387L.072 12.664c-.307 2.495.462 4.463.495 4.58 1.339 4.658 5.094 8.255 9.76 9.273a12.22 12.22 0 0 0 2.318.297z" style="fill:#00007e;stroke-width:.963166"/><path d="M14.215 26.784V15.762l9.772-5.809c-1.127-3.517-3.944-6.256-7.453-7.212v9.496l-2.32 1.454V0c.782.03 1.567.12 2.32.298 5.195 1.134 9.226 5.42 10.124 10.846l-10.124 5.988v6.91c3.43-.93 6.442-3.378 7.62-6.754.03-.079.705-1.597.654-3.387l1.988-1.266c.307 2.495-.462 4.463-.495 4.58-1.341 4.658-5.098 8.255-9.766 9.273a12.25 12.25 0 0 1-2.32.297z" style="fill:#00007e;stroke-width:.963469"/></svg>