<svg width="221.036" height="28.501" xmlns="http://www.w3.org/2000/svg"><text style="line-height:1.25;-inkscape-font-specification:'Armstrong, Normal';font-variant-ligatures:normal;font-variant-caps:normal;font-variant-numeric:normal;font-variant-east-asian:normal;fill:#00007e" x="37.551" y="62.543" font-weight="400" font-size="22.498" font-family="Armstrong" stroke-width="1.407" transform="translate(-2.506 -46.475)"><tspan x="37.551" y="62.543" style="-inkscape-font-specification:'Armstrong, Normal';font-variant-ligatures:normal;font-variant-caps:normal;font-variant-numeric:normal;font-variant-east-asian:normal;stroke-width:1.40685">STAKE BENEFIT</tspan></text><text style="line-height:1.25;-inkscape-font-specification:'Armstrong, Normal';font-variant-ligatures:normal;font-variant-caps:normal;font-variant-numeric:normal;font-variant-east-asian:normal;fill:#00007e" x="34.355" y="80.516" transform="matrix(1.10113 0 0 .90816 -2.506 -46.475)" font-weight="400" font-size="10.576" font-family="Armstrong" stroke-width=".154"><tspan x="34.355" y="80.516" style="-inkscape-font-specification:'Armstrong, Normal';font-variant-ligatures:normal;font-variant-caps:normal;font-variant-numeric:normal;font-variant-east-asian:normal;stroke-width:.154175">the easiest way than a click</tspan></text><path d="M15.989 74.953v-11.72L5.576 57.059c1.201-3.738 4.201-6.65 7.94-7.666v10.095l2.473 1.546V46.479c-.834.032-1.67.128-2.473.317C7.981 48 3.686 52.558 2.729 58.326l10.787 6.365v7.346c-3.654-.99-6.863-3.591-8.12-7.18-.03-.086-.75-1.698-.695-3.601L2.583 59.91c-.327 2.652.493 4.745.527 4.869 1.428 4.952 5.432 8.776 10.406 9.858.803.188 1.64.284 2.473.316z" style="fill:#00007e;stroke-width:1.02545" transform="translate(-2.506 -46.475)"/><path d="M17.562 74.974V63.247l10.453-6.181c-1.206-3.743-4.22-6.657-7.972-7.675v10.105l-2.482 1.547V46.475a13.06 13.06 0 0 1 2.482.317c5.556 1.206 9.868 5.767 10.828 11.54l-10.828 6.373v7.353c3.668-.99 6.89-3.595 8.15-7.187.031-.084.754-1.7.699-3.604l2.127-1.348c.328 2.655-.495 4.75-.53 4.874-1.434 4.957-5.452 8.784-10.445 9.867a13.03 13.03 0 0 1-2.482.316z" style="fill:#00007e;stroke-width:1.02787" transform="translate(-2.506 -46.475)"/></svg>