<?xml version="1.0" encoding="UTF-8" standalone="no"?>
<svg
   width="28.365"
   height="26.813"
   version="1.1"
   id="svg6"
   sodipodi:docname="logo3.svg"
   inkscape:version="1.1.2 (1:1.1+202202050950+0a00cf5339)"
   xmlns:inkscape="http://www.inkscape.org/namespaces/inkscape"
   xmlns:sodipodi="http://sodipodi.sourceforge.net/DTD/sodipodi-0.dtd"
   xmlns="http://www.w3.org/2000/svg"
   xmlns:svg="http://www.w3.org/2000/svg">
  <defs
     id="defs10" />
  <sodipodi:namedview
     id="namedview8"
     pagecolor="#ffffff"
     bordercolor="#666666"
     borderopacity="1.0"
     inkscape:pageshadow="2"
     inkscape:pageopacity="0.0"
     inkscape:pagecheckerboard="0"
     showgrid="false"
     inkscape:zoom="16"
     inkscape:cx="16.15625"
     inkscape:cy="20.34375"
     inkscape:window-width="1848"
     inkscape:window-height="1016"
     inkscape:window-x="72"
     inkscape:window-y="27"
     inkscape:window-maximized="1"
     inkscape:current-layer="svg6" />
  <path
     d="M 13.393,26.912 V 15.889 l -10.31,-5.81 c 1.19,-3.516 4.16,-6.255 7.862,-7.211 v 9.496 l 2.448,1.454 V 0.128 C 12.568,0.158 11.74,0.248 10.945,0.426 5.465,1.56 1.212,5.846 0.265,11.272 l 10.68,5.987 v 6.91 C 10.081756,23.949214 8.4974526,23.205931 8.4974526,23.205931 L 8.5430706,18.409106 6.312337,17.256285 6.1806829,24.694641 c 0,0 3.3701949,1.632193 4.7643171,1.920359 0.795,0.177 1.623,0.267 2.448,0.297 z"
     style="fill:#00007e;stroke-width:0.989624"
     transform="translate(-0.043,-0.098)"
     id="path2"
     sodipodi:nodetypes="cccccccccccsccccc" />
  <path
     d="m 15.548396,26.871255 v -11.023 l 10.216261,-5.81 C 24.585476,6.5222547 21.64248,3.7832547 17.974139,2.8272547 v 9.4960003 l -2.425743,1.454 V 0.08725474 c 0.817499,0.03 1.63797,0.12 2.425743,0.298 5.430174,1.13399996 9.644506,5.41999996 10.582895,10.84600026 l -10.582895,5.987 v 6.91 c 0.855394,-0.219786 2.425293,-0.963069 2.425293,-0.963069 l -0.0452,-4.796825 2.210451,-1.152821 0.130457,7.438356 c 0,0 -3.339553,1.632193 -4.720999,1.920359 -0.787772,0.177 -1.608244,0.267 -2.425743,0.297 z"
     style="fill:#00007e;stroke-width:0.985115"
     id="path2-6"
     sodipodi:nodetypes="cccccccccccsccccc" />
</svg>
