<?xml version="1.0" encoding="UTF-8" standalone="no"?>
<svg
   width="28.365"
   height="26.813"
   version="1.1"
   id="svg6"
   sodipodi:docname="logo2.svg"
   inkscape:version="1.1.2 (1:1.1+202202050950+0a00cf5339)"
   xmlns:inkscape="http://www.inkscape.org/namespaces/inkscape"
   xmlns:sodipodi="http://sodipodi.sourceforge.net/DTD/sodipodi-0.dtd"
   xmlns="http://www.w3.org/2000/svg"
   xmlns:svg="http://www.w3.org/2000/svg">
  <defs
     id="defs10" />
  <sodipodi:namedview
     id="namedview8"
     pagecolor="#ffffff"
     bordercolor="#666666"
     borderopacity="1.0"
     inkscape:pageshadow="2"
     inkscape:pageopacity="0.0"
     inkscape:pagecheckerboard="0"
     showgrid="false"
     inkscape:zoom="3.9346586"
     inkscape:cx="4.7018056"
     inkscape:cy="25.796393"
     inkscape:window-width="1848"
     inkscape:window-height="1016"
     inkscape:window-x="72"
     inkscape:window-y="27"
     inkscape:window-maximized="1"
     inkscape:current-layer="svg6" />
  <path
     d="M 13.393,26.912 V 15.889 l -10.31,-5.81 c 1.19,-3.516 4.16,-6.255 7.862,-7.211 v 9.496 l 2.448,1.454 V 0.128 C 12.568,0.158 11.74,0.248 10.945,0.426 5.465,1.56 1.212,5.846 0.265,11.272 l 10.68,5.987 v 6.91 C 8.8302358,23.625404 6.9643745,22.480611 5.4076927,21.052046 v 0 L 3.846761,22.737438 c 0.3494387,0.465804 -0.4070624,-0.41744 0,0 1.8771456,1.924999 4.3366108,3.306732 7.098239,3.877562 0.795,0.177 1.623,0.267 2.448,0.297 z"
     style="fill:#00007e;stroke-width:0.989624"
     transform="translate(-0.043,-0.098)"
     id="path2"
     sodipodi:nodetypes="ccccccccccccccscc" />
  <path
     d="m 15.291637,26.803611 v -11.023 l 10.344415,-5.81 c -1.193972,-3.516 -4.173886,-6.255 -7.888243,-7.211 v 9.496 l -2.456172,1.454 V 0.01961097 c 0.827754,0.03 1.658518,0.12 2.456172,0.298 C 23.246101,1.451611 27.513297,5.737611 28.463459,11.163611 l -10.71565,5.987 v 6.91 c 2.121822,-0.543596 3.993913,-1.688389 5.55579,-3.116954 v 0 l 1.566143,1.685392 c -0.350605,0.465804 0.40842,-0.41744 0,0 -1.883413,1.924999 -4.351087,3.306732 -7.121933,3.877562 -0.797654,0.177 -1.628418,0.267 -2.456172,0.297 z"
     style="fill:#00007e;stroke-width:0.991277"
     id="path2-3"
     sodipodi:nodetypes="ccccccccccccccscc" />
</svg>
